<?xml version="1.0" encoding="utf-8"?>
<!-- Generator: Adobe Illustrator 22.1.0, SVG Export Plug-In . SVG Version: 6.00 Build 0)  -->
<svg version="1.1" id="Layer_1" xmlns="http://www.w3.org/2000/svg" xmlns:xlink="http://www.w3.org/1999/xlink" x="0px" y="0px"
	 viewBox="0 0 137 75.67944" style="enable-background:new 0 0 137 75.67944;" xml:space="preserve">
<g>
	<g>
		<path d="M3.23306,75.40643H0V55.46207h11.25421v2.75605H3.23306v6.23411h7.51614v2.76905H3.23306V75.40643z"/>
		<path d="M28.60902,67.8353c0,2.46504-0.63201,4.38808-1.89603,5.7711c-1.26452,1.38203-3.02406,2.07304-5.2796,2.07304
			c-1.40953,0-2.65555-0.319-3.73757-0.95502c-1.08252-0.63601-1.91454-1.55003-2.49655-2.74205
			c-0.58201-1.19202-0.87302-2.57404-0.87302-4.14707c0-2.44704,0.62751-4.35608,1.88253-5.7291
			c1.25502-1.37403,3.02356-2.06004,5.3066-2.06004c2.18254,0,3.91057,0.70201,5.1836,2.10804
			C27.97251,63.55822,28.60902,65.45226,28.60902,67.8353z M17.62732,67.8353c0,3.48306,1.28702,5.2251,3.86057,5.2251
			c2.54655,0,3.82007-1.74203,3.82007-5.2251c0-3.44706-1.28252-5.17009-3.84707-5.17009
			c-1.34603,0-2.32154,0.44501-2.92605,1.33702C17.92983,64.89324,17.62732,66.17126,17.62732,67.8353z"/>
		<path d="M45.96384,67.8353c0,2.46504-0.63201,4.38808-1.89604,5.7711c-1.26452,1.38203-3.02405,2.07304-5.27959,2.07304
			c-1.40953,0-2.65555-0.319-3.73757-0.95502c-1.08252-0.63601-1.91454-1.55003-2.49655-2.74205
			c-0.58201-1.19202-0.87301-2.57404-0.87301-4.14707c0-2.44704,0.62751-4.35608,1.88254-5.7291
			c1.25502-1.37403,3.02355-2.06004,5.30659-2.06004c2.18254,0,3.91057,0.70201,5.18359,2.10804
			C45.32733,63.55822,45.96384,65.45226,45.96384,67.8353z M34.98214,67.8353c0,3.48306,1.28702,5.2251,3.86057,5.2251
			c2.54655,0,3.82007-1.74203,3.82007-5.2251c0-3.44706-1.28252-5.17009-3.84707-5.17009
			c-1.34602,0-2.32154,0.44501-2.92605,1.33702C35.28465,64.89324,34.98214,66.17126,34.98214,67.8353z"/>
		<path d="M55.02451,75.67944c-1.88253,0-3.35156-0.68201-4.40608-2.04704c-1.05502-1.36402-1.58253-3.27806-1.58253-5.7421
			c0-2.47404,0.53401-4.40008,1.60303-5.77811c1.06852-1.37803,2.54855-2.06604,4.44008-2.06604
			c1.98254,0,3.49256,0.73201,4.52908,2.19604h0.1635c-0.1545-1.08202-0.23151-1.93703-0.23151-2.56405v-5.4981h3.21906v21.22639
			H60.2491l-0.55901-1.97803h-0.15001C58.51207,74.92843,57.00704,75.67944,55.02451,75.67944z M55.88402,73.08739
			c1.31853,0,2.27804-0.37101,2.87856-1.11202c0.60001-0.74101,0.90902-1.94304,0.92752-3.60806V67.9173
			c0-1.90103-0.30951-3.25106-0.92752-4.05107c-0.61901-0.80101-1.58753-1.20102-2.90606-1.20102
			c-1.12752,0-1.99604,0.45701-2.60555,1.37102c-0.60951,0.91402-0.91402,2.21604-0.91402,3.90807
			c0,1.67403,0.29551,2.94905,0.88702,3.82607C53.81498,72.64838,54.7015,73.08739,55.88402,73.08739z"/>
		<path d="M67.87924,56.32159c0-0.57301,0.1565-1.01402,0.4705-1.32302c0.31351-0.30901,0.76151-0.46401,1.34353-0.46401
			c0.564,0,1.00252,0.155,1.31652,0.46401c0.31351,0.30901,0.4705,0.75002,0.4705,1.32302c0,0.54601-0.157,0.97552-0.4705,1.28952
			c-0.314,0.3135-0.75252,0.47051-1.31652,0.47051c-0.58202,0-1.03002-0.15701-1.34353-0.47051
			C68.03574,57.2971,67.87924,56.8676,67.87924,56.32159z M71.2758,75.40643h-3.20556V60.31816h3.20556V75.40643z"/>
		<path d="M83.06551,75.67944c-2.34654,0-4.18108-0.68501-5.5041-2.05303c-1.32352-1.36903-1.98504-3.25406-1.98504-5.65411
			c0-2.46504,0.61401-4.40208,1.84154-5.8121c1.22752-1.41003,2.91455-2.11404,5.06109-2.11404
			c1.99154,0,3.56506,0.60401,4.72009,1.81403s1.73203,2.87405,1.73203,4.99309v1.73303H78.87744
			c0.0455,1.46403,0.44101,2.58904,1.18702,3.37606c0.74551,0.78601,1.79604,1.18002,3.15105,1.18002
			c0.89152,0,1.72103-0.084,2.48955-0.25301c0.76901-0.16801,1.59403-0.44701,2.47604-0.83901v2.60604
			c-0.78201,0.37201-1.57303,0.63602-2.37354,0.79102C85.00705,75.60244,84.09303,75.67944,83.06551,75.67944z M82.479,62.4742
			c-1.01852,0-1.83503,0.32301-2.44854,0.96802c-0.61401,0.64601-0.98002,1.58803-1.09853,2.82405h6.84813
			c-0.01801-1.24602-0.31801-2.18904-0.90002-2.83005C84.29803,62.7942,83.49752,62.4742,82.479,62.4742z"/>
		<path d="M96.26025,75.40643H93.0272V55.46207h11.2542v2.75605h-8.02115v6.23411h7.51614v2.76905h-7.51614V75.40643z"/>
		<path d="M118.13065,75.40643l-0.45-1.97803h-0.164c-0.44501,0.70001-1.08002,1.25002-1.90304,1.65003
			s-1.76203,0.60101-2.81705,0.60101c-1.82803,0-3.19205-0.455-4.09207-1.36502c-0.90002-0.90802-1.35102-2.28604-1.35102-4.13207
			v-9.86418h3.23306v9.30417c0,1.15502,0.23701,2.02203,0.71001,2.59805c0.47201,0.57801,1.21402,0.86702,2.22304,0.86702
			c1.34602,0,2.33504-0.40301,2.96706-1.20702c0.63201-0.80502,0.94802-2.15404,0.94802-4.04507v-7.51714h3.22005v15.08827
			H118.13065z"/>
		<path d="M137,75.40643h-3.22006v-9.27617c0-1.16402-0.23399-2.03204-0.70201-2.60604
			c-0.46901-0.57201-1.21202-0.85902-2.23004-0.85902c-1.35602,0-2.34705,0.40001-2.97405,1.20102
			c-0.62801,0.80001-0.94202,2.14104-0.94202,4.02407v7.51614h-3.20506V60.31816h2.51004l0.45001,1.97803h0.164
			c0.45401-0.71801,1.10002-1.27202,1.93704-1.66403c0.83601-0.39001,1.76402-0.58601,2.78305-0.58601
			c3.61906,0,5.42909,1.84203,5.42909,5.5241V75.40643z"/>
	</g>
	<g>
		<polygon points="71.5168,8.6015 70.66085,7.75066 69.58715,8.30178 70.13185,7.2248 69.2759,6.37396 70.46849,6.5592 
			71.01319,5.48222 71.20555,6.67368 72.39814,6.85891 71.32444,7.41004 		"/>
		<polygon points="80.94637,31.92351 79.25862,30.94121 77.80287,32.24281 78.21555,30.33413 76.5278,29.35184 78.47059,29.15449 
			78.88326,27.24581 79.6713,29.03253 81.61409,28.83519 80.15833,30.13679 		"/>
		<polygon points="57.52467,19.12244 56.72566,17.75319 55.17652,18.08996 56.23185,16.90694 55.43285,15.53768 56.88409,16.17579 
			57.93943,14.99277 57.781,16.57017 59.23223,17.20828 57.68309,17.54505 		"/>
		<path d="M68.5,0.57636c-12.42514,0-22.5,10.07486-22.5,22.5s10.07486,22.5,22.5,22.5S91,35.5015,91,23.07636
			S80.92515,0.57636,68.5,0.57636z M68.5,43.00493c-3.94458,0-7.62429-1.14686-10.71771-3.12429
			c0.25714-0.39857,1.53514-2.36057,2.30914-3.24257c0.86399-0.98744,1.74857-1.09286,2.95972-0.92315
			c1.21115,0.17229,2.96229,1.16744,4.43057-0.108c1.46828-1.27286,6.28972-8.442,12.07543-18.78428
			c0,0,0.06171-0.06429-0.00258-0.12342c-0.06686-0.06173-0.28799-0.21858-0.28799-0.21858s-0.05143-0.02058-0.10542,0.03343
			c-0.05143,0.05401-4.23772,4.53086-9.648,12.46372c0,0-0.49628,0.47828-0.92828,0.18256
			c-0.432-0.2957-0.48343-0.66343-0.22115-0.98742c0.25971-0.324,6.74744-9.54258,8.72742-13.34057
			c0,0,0.07458-0.126-0.02313-0.20315c-0.10029-0.07457-0.19028,0.04373-0.19028,0.04373s-5.76,5.75229-11.45058,13.67999
			c0,0-0.49628,0.51943-0.95143,0.17487l-0.00256-0.00257c-0.45515-0.342-0.09001-0.96171-0.09001-0.96171
			c6.06858-7.63972,10.02857-14.75486,10.02857-14.75486s0.09001-0.11829-0.01028-0.19286
			c-0.10029-0.07458-0.20315,0.03086-0.20315,0.03086c-3.10885,2.94429-10.20343,11.70513-10.44514,12.04456
			c-0.24171,0.33685-0.60685,0.38829-1.01057,0.054c-0.40372-0.33428-0.07714-0.94115-0.07714-0.94115
			c6.15086-7.37486,9.31115-12.62313,9.34971-12.68742c0.03858-0.06686,0.00515-0.11057,0.00515-0.11057
			s-0.21086-0.16972-0.288-0.21601c-0.07713-0.04628-0.12086,0.03086-0.12086,0.03086
			C63.244,19.21407,57.66657,25.80979,56.84114,27.57121c-0.82285,1.75886,0.612,3.17058,1.10828,4.28914
			c0.49372,1.11858,0.63515,2.00058-0.07714,3.09857c-0.64286,0.99258-2.19857,2.77458-2.49429,3.11401
			c-4.17085-3.65143-6.80656-9.01543-6.80656-14.99657c0-11.00571,8.92286-19.92857,19.92857-19.92857
			s19.92857,8.92286,19.92857,19.92857S79.50571,43.00493,68.5,43.00493z"/>
	</g>
</g>
</svg>
