<?xml version="1.0" encoding="utf-8"?>
<!-- Generator: Adobe Illustrator 22.1.0, SVG Export Plug-In . SVG Version: 6.00 Build 0)  -->
<svg version="1.1" id="Layer_1" xmlns="http://www.w3.org/2000/svg" xmlns:xlink="http://www.w3.org/1999/xlink" x="0px" y="0px"
	 viewBox="0 0 199.5 51.1" style="enable-background:new 0 0 199.5 51.1;" xml:space="preserve">
<style type="text/css">
	.st0{fill:#232A34;}
	.st1{fill:#B5223D;}
</style>
<polygon class="st1" points="29.1,9.5 28.1,8.5 26.9,9.1 27.5,7.9 26.6,7 27.9,7.2 28.5,6 28.7,7.3 30,7.5 28.9,8.2 "/>
<polygon class="st1" points="39.5,35.4 37.7,34.3 36.1,35.7 36.5,33.6 34.6,32.5 36.8,32.3 37.3,30.2 38.1,32.2 40.3,32 38.7,33.4
	"/>
<polygon class="st1" points="13.5,21.2 12.6,19.6 10.9,20 12.1,18.7 11.2,17.2 12.8,17.9 14,16.6 13.8,18.3 15.4,19 13.7,19.4 "/>
<path class="st1" d="M68.2,35.8H65V16.3h11V19h-7.8v6.1h7.3v2.7h-7.3L68.2,35.8L68.2,35.8z"/>
<path class="st1" d="M93,28.4c0,2.4-0.6,4.3-1.9,5.6c-1.2,1.3-3,2-5.2,2c-1.4,0-2.6-0.3-3.6-0.9c-1.1-0.6-1.9-1.5-2.4-2.7
	s-0.9-2.5-0.9-4c0-2.4,0.6-4.3,1.8-5.6c1.2-1.3,3-2,5.2-2c2.1,0,3.8,0.7,5.1,2.1C92.3,24.2,93,26.1,93,28.4z M82.2,28.4
	c0,3.4,1.3,5.1,3.8,5.1c2.5,0,3.7-1.7,3.7-5.1c0-3.4-1.3-5-3.8-5c-1.3,0-2.3,0.4-2.9,1.3C82.5,25.5,82.2,26.8,82.2,28.4z"/>
<path class="st1" d="M109.9,28.4c0,2.4-0.6,4.3-1.9,5.6c-1.2,1.3-3,2-5.2,2c-1.4,0-2.6-0.3-3.6-0.9c-1.1-0.6-1.9-1.5-2.4-2.7
	s-0.9-2.5-0.9-4c0-2.4,0.6-4.3,1.8-5.6c1.2-1.3,3-2,5.2-2c2.1,0,3.8,0.7,5.1,2.1C109.3,24.2,109.9,26.1,109.9,28.4z M99.2,28.4
	c0,3.4,1.3,5.1,3.8,5.1c2.5,0,3.7-1.7,3.7-5.1c0-3.4-1.3-5-3.8-5c-1.3,0-2.3,0.4-2.9,1.3C99.5,25.5,99.2,26.8,99.2,28.4z"/>
<path class="st1" d="M118.8,36.1c-1.8,0-3.3-0.7-4.3-2c-1-1.3-1.5-3.2-1.5-5.6c0-2.4,0.5-4.3,1.6-5.6c1-1.3,2.5-2,4.3-2
	c1.9,0,3.4,0.7,4.4,2.1h0.2c-0.2-1.1-0.2-1.9-0.2-2.5v-5.4h3.1v20.7h-2.5l-0.5-1.9h-0.1C122.2,35.3,120.7,36.1,118.8,36.1z
	 M119.6,33.5c1.3,0,2.2-0.4,2.8-1.1c0.6-0.7,0.9-1.9,0.9-3.5v-0.4c0-1.9-0.3-3.2-0.9-4c-0.6-0.8-1.6-1.2-2.8-1.2
	c-1.1,0-1.9,0.4-2.5,1.3s-0.9,2.2-0.9,3.8c0,1.6,0.3,2.9,0.9,3.7C117.6,33.1,118.4,33.5,119.6,33.5z"/>
<path class="st1" d="M131.3,17.2c0-0.6,0.2-1,0.5-1.3c0.3-0.3,0.7-0.5,1.3-0.5c0.6,0,1,0.2,1.3,0.5c0.3,0.3,0.5,0.7,0.5,1.3
	c0,0.5-0.2,1-0.5,1.3c-0.3,0.3-0.7,0.5-1.3,0.5c-0.6,0-1-0.2-1.3-0.5C131.5,18.1,131.3,17.7,131.3,17.2z M134.6,35.8h-3.1V21.1h3.1
	V35.8z"/>
<path class="st1" d="M146.1,36.1c-2.3,0-4.1-0.7-5.4-2c-1.3-1.3-1.9-3.2-1.9-5.5c0-2.4,0.6-4.3,1.8-5.7s2.8-2.1,4.9-2.1
	c1.9,0,3.5,0.6,4.6,1.8s1.7,2.8,1.7,4.9v1.7H142c0,1.4,0.4,2.5,1.2,3.3c0.7,0.8,1.8,1.2,3.1,1.2c0.9,0,1.7-0.1,2.4-0.2
	c0.8-0.2,1.6-0.4,2.4-0.8v2.5c-0.8,0.4-1.5,0.6-2.3,0.8S147.1,36.1,146.1,36.1z M145.6,23.2c-1,0-1.8,0.3-2.4,0.9
	c-0.6,0.6-1,1.6-1.1,2.8h6.7c0-1.2-0.3-2.1-0.9-2.8C147.3,23.5,146.6,23.2,145.6,23.2z"/>
<path class="st1" d="M159,35.8h-3.2V16.3h11V19H159v6.1h7.3v2.7H159V35.8z"/>
<path class="st1" d="M180.4,35.8l-0.4-1.9h-0.2c-0.4,0.7-1.1,1.2-1.9,1.6s-1.7,0.6-2.8,0.6c-1.8,0-3.1-0.4-4-1.3
	c-0.9-0.9-1.3-2.2-1.3-4v-9.6h3.2v9.1c0,1.1,0.2,2,0.7,2.5c0.5,0.6,1.2,0.8,2.2,0.8c1.3,0,2.3-0.4,2.9-1.2c0.6-0.8,0.9-2.1,0.9-4
	v-7.3h3.1v14.7H180.4z"/>
<path class="st1" d="M198.8,35.8h-3.1v-9.1c0-1.1-0.2-2-0.7-2.5c-0.5-0.6-1.2-0.8-2.2-0.8c-1.3,0-2.3,0.4-2.9,1.2
	c-0.6,0.8-0.9,2.1-0.9,3.9v7.3h-3.1V21.1h2.5l0.4,1.9h0.2c0.4-0.7,1.1-1.2,1.9-1.6c0.8-0.4,1.7-0.6,2.7-0.6c3.5,0,5.3,1.8,5.3,5.4
	V35.8z"/>
<path class="st0" d="M25.7,0.6c-13.8,0-25,11.2-25,25s11.2,25,25,25s25-11.2,25-25S39.5,0.6,25.7,0.6z M25.7,47.7
	c-4.4,0-8.5-1.3-11.9-3.5c0.3-0.4,1.7-2.6,2.6-3.6c1-1.1,1.9-1.2,3.3-1c1.3,0.2,3.3,1.3,4.9-0.1c1.6-1.4,7-9.4,13.4-20.9
	c0,0,0.1-0.1,0-0.1c-0.1-0.1-0.3-0.2-0.3-0.2s-0.1,0-0.1,0c-0.1,0.1-4.7,5-10.7,13.8c0,0-0.6,0.5-1,0.2c-0.5-0.3-0.5-0.7-0.2-1.1
	c0.3-0.4,7.5-10.6,9.7-14.8c0,0,0.1-0.1,0-0.2c-0.1-0.1-0.2,0-0.2,0s-6.4,6.4-12.7,15.2c0,0-0.6,0.6-1.1,0.2l0,0
	c-0.5-0.4-0.1-1.1-0.1-1.1c6.7-8.5,11.1-16.4,11.1-16.4s0.1-0.1,0-0.2c-0.1-0.1-0.2,0-0.2,0c-3.5,3.3-11.3,13-11.6,13.4
	c-0.3,0.4-0.7,0.4-1.1,0.1s-0.1-1-0.1-1c6.8-8.2,10.3-14,10.4-14.1c0-0.1,0-0.1,0-0.1s-0.2-0.2-0.3-0.2c-0.1-0.1-0.1,0-0.1,0
	c-9.3,9.3-15.5,16.7-16.4,18.6c-0.9,2,0.7,3.5,1.2,4.8c0.5,1.2,0.7,2.2-0.1,3.4c-0.7,1.1-2.4,3.1-2.8,3.5c-4.6-4.1-7.6-10-7.6-16.7
	c0-12.2,9.9-22.1,22.1-22.1s22.1,9.9,22.1,22.1S37.9,47.7,25.7,47.7z"/>
</svg>
