<?xml version="1.0" encoding="utf-8"?>
<!-- Generator: Adobe Illustrator 22.1.0, SVG Export Plug-In . SVG Version: 6.00 Build 0)  -->
<svg version="1.1" id="Layer_1" xmlns="http://www.w3.org/2000/svg" xmlns:xlink="http://www.w3.org/1999/xlink" x="0px" y="0px"
	 viewBox="0 0 205.75 30.15641" style="enable-background:new 0 0 205.75 30.15641;" xml:space="preserve">

<style type="text/css">
	.st0{fill:#F6F7F8;}
	.st1{fill:#B5223D;}
</style>

<g>
	<g>
		<path class="st0" d="M2.74296,29.05101H0.875V2.26838h14.6731v1.72293H2.74296v11.35683h12.09072v1.74039H2.74296V29.05101z"/>
		<path class="st0" d="M39.91957,19.06796c0,3.24846-0.78761,5.78518-2.36349,7.61151c-1.57521,1.82499-3.74936,2.73816-6.52108,2.73816
			c-1.7471,0-3.28539-0.42167-4.61686-1.26366c-1.3308-0.84334-2.35073-2.05194-3.05911-3.62715
			c-0.70838-1.57521-1.06223-3.39483-1.06223-5.45885c0-3.24846,0.78761-5.77981,2.36282-7.59405
			c1.57521-1.8129,3.73727-2.71936,6.48482-2.71936c2.73547,0,4.88208,0.91854,6.43916,2.75696
			C39.14069,13.34858,39.91957,15.86784,39.91957,19.06796z M24.2017,19.06796c0,2.73547,0.60162,4.86932,1.80417,6.40156
			c1.20323,1.53358,2.904,2.29903,5.10232,2.29903s3.89841-0.76545,5.10165-2.29903
			c1.20256-1.53224,1.80417-3.66609,1.80417-6.40156c0-2.7489-0.60766-4.87873-1.8223-6.39351
			c-1.21532-1.51478-2.92213-2.27217-5.12044-2.27217s-3.89237,0.75471-5.08352,2.26277
			C24.79727,14.17311,24.2017,16.30831,24.2017,19.06796z"/>
		<path class="st0" d="M83.11099,8.75455c1.44093,0,2.68645,0.26186,3.73727,0.78693c1.05014,0.52507,1.99017,1.42346,2.82075,2.6925h0.11012
			c-0.07319-1.53761-0.11012-3.04702-0.11012-4.5242V0.54679h1.79544v28.50422h-1.19047l-0.45793-3.04031h-0.14704
			c-1.51411,2.27083-3.68826,3.40692-6.52108,3.40692c-2.74823,0-4.84851-0.85408-6.30219-2.56492
			c-1.45301-1.7095-2.17951-4.20057-2.17951-7.47319c0-3.44452,0.72046-6.07658,2.16138-7.8962
			C78.26852,9.66368,80.36343,8.75455,83.11099,8.75455z M83.11099,10.40228c-2.17414,0-3.80777,0.76411-4.90021,2.28963
			c-1.09312,1.52687-1.63967,3.74398-1.63967,6.65c0,5.64283,2.19227,8.46425,6.57681,8.46425
			c2.24665,0,3.89505-0.65399,4.94587-1.96062c1.05014-1.30663,1.57521-3.46197,1.57521-6.46602v-0.31155
			c0-3.07791-0.51567-5.29099-1.54768-6.6406S85.41943,10.40228,83.11099,10.40228z"/>
		<path class="st0" d="M102.09679,3.6059c0-1.17234,0.38406-1.75785,1.15354-1.75785c0.3787,0,0.6748,0.15309,0.889,0.45793
			c0.21352,0.30484,0.32027,0.73859,0.32027,1.29992c0,0.55059-0.10676,0.983-0.32027,1.30126
			c-0.2142,0.31692-0.5103,0.47673-0.889,0.47673C102.48086,5.38389,102.09679,4.79167,102.09679,3.6059z M104.16619,29.05101
			h-1.81358V9.13861h1.81358V29.05101z"/>
		<path class="st0" d="M123.0788,29.41762c-2.8946,0-5.15133-0.89168-6.76884-2.67504c-1.61886-1.78202-2.42728-4.2798-2.42728-7.49199
			c0-3.17459,0.78089-5.71803,2.34469-7.63031c1.56313-1.91094,3.66945-2.86573,6.31965-2.86573
			c2.34536,0,4.19519,0.81782,5.55083,2.45346c1.35565,1.63698,2.03381,3.85947,2.03381,6.6688v1.46509h-14.34409
			c0.02417,2.73681,0.66272,4.82501,1.91429,6.26593c1.25157,1.44092,3.04366,2.16071,5.37694,2.16071
			c1.13541,0,2.13386-0.07923,2.99464-0.23769c0.86147-0.15846,1.95123-0.5009,3.26995-1.02597v1.64907
			c-1.12334,0.48881-2.16139,0.82185-3.11417,0.99777C125.27711,29.32899,124.2263,29.41762,123.0788,29.41762z M122.54702,10.36602
			c-1.91698,0-3.45593,0.6325-4.61619,1.89616c-1.16026,1.26366-1.83775,3.08597-2.03314,5.46825h12.31029
			c0-2.30843-0.5009-4.11328-1.50202-5.4132C125.70415,11.01598,124.31829,10.36602,122.54702,10.36602z"/>
		<path class="st0" d="M142.15524,29.05101h-1.86795V2.26838h14.67377v1.72293h-12.80582v11.35683h12.0914v1.74039h-12.0914V29.05101z"/>
		<path class="st0" d="M164.43785,9.13861v12.89713c0,2.00225,0.42166,3.45929,1.26366,4.36843c0.84334,0.91048,2.14998,1.36438,3.91991,1.36438
			c2.37019,0,4.11327-0.59759,5.23056-1.79545c1.11728-1.19652,1.67593-3.14371,1.67593-5.84292V9.13861h1.79544v19.9124h-1.53896
			l-0.32901-2.74755h-0.11011c-1.29456,2.07611-3.59761,3.11416-6.90649,3.11416c-4.53091,0-6.79637-2.42392-6.79637-7.2731V9.13861
			H164.43785z"/>
		<path class="st0" d="M203.07956,29.05101V16.13642c0-2.00225-0.42168-3.45929-1.26367-4.36843
			c-0.84332-0.91048-2.14996-1.36572-3.92123-1.36572c-2.38095,0-4.12402,0.60162-5.22922,1.80485
			c-1.10521,1.20323-1.65848,3.15445-1.65848,5.85232v10.99157h-1.8129V9.13861h1.53894l0.34781,2.7301h0.11012
			c1.29456-2.07611,3.59627-3.11417,6.90515-3.11417c4.51883,0,6.77892,2.42392,6.77892,7.27176v13.0247H203.07956z"/>
	</g>
	<path class="st1" d="M57.31579,8.94662c-5.70298,0-10.3315,4.62438-10.3315,10.3315c0,3.09945,1.36789,5.88068,3.52923,7.77342
		c0.15293-0.1777,0.9629-1.09926,1.29351-1.61584c0.37194-0.56616,0.29756-1.0249,0.04134-1.60345
		c-0.25622-0.58271-1.00008-1.31416-0.57444-2.22334c0.42567-0.91331,3.31849-4.33509,7.65772-8.68673
		c0,0,0.02066-0.03718,0.06197-0.01652c0.04134,0.02479,0.14877,0.11156,0.14877,0.11156s0.01654,0.02479-0.00411,0.05786
		c-0.01655,0.03307-1.65718,2.75644-4.84756,6.57909c0,0-0.16529,0.31408,0.04134,0.48767
		c0.21074,0.17356,0.40085,0.14877,0.52482-0.02893c0.124-0.17359,3.802-4.71531,5.41372-6.24438
		c0,0,0.05373-0.0537,0.10745-0.01652c0.04959,0.04134,0.00411,0.10331,0.00411,0.10331s-2.05389,3.68627-5.1988,7.64945
		c0,0-0.19011,0.31822,0.04545,0.49592l0.00414,0.00414c0.23556,0.1777,0.49178-0.09093,0.49178-0.09093
		c2.95066-4.11194,5.93441-7.09567,5.93441-7.09567s0.04959-0.05786,0.09918-0.02066
		c0.05373,0.04132,0.01241,0.10331,0.01241,0.10331c-1.0249,1.97123-4.38882,6.74852-4.5252,6.91797
		c-0.13638,0.16943-0.10745,0.35954,0.1157,0.51244c0.22318,0.1529,0.48353-0.09504,0.48353-0.09504
		c2.80189-4.11194,4.9715-6.43446,5.00043-6.46339c0.02893-0.02479,0.05373-0.01652,0.05373-0.01652s0.1157,0.08263,0.14877,0.1157
		c0.03307,0.02893,0.00414,0.062,0.00414,0.062c-3.00027,5.36411-5.50049,9.07931-6.2609,9.74054
		c-0.76452,0.66121-1.66956,0.14463-2.29773,0.0537c-0.62814-0.08677-1.08688-0.03304-1.53318,0.4794
		c-0.40501,0.45871-1.06622,1.47534-1.19846,1.68197c1.60345,1.02488,3.51271,1.61997,5.55421,1.61997
		c5.70712,0,10.3315-4.62852,10.3315-10.3315C67.64729,13.571,63.02291,8.94662,57.31579,8.94662z M52.46826,16.17867
		l-0.07438,0.72321l-0.36781-0.62816l-0.71082,0.15704l0.48354-0.54551l-0.36367-0.62814l0.66534,0.2934l0.48351-0.54137
		l-0.07024,0.7232l0.66534,0.29342L52.46826,16.17867z M58.72913,11.52536l0.09093,0.54551l-0.3926-0.38847l-0.49592,0.25208
		l0.25211-0.49589l-0.3926-0.38847l0.54551,0.08263l0.25208-0.49178l0.08677,0.54551l0.54964,0.08679L58.72913,11.52536z
		 M63.14688,22.78255l-0.7728-0.45044l-0.66948,0.59509l0.19011-0.87611l-0.77279-0.45047l0.88849-0.0909l0.19011-0.87611
		l0.36367,0.81825l0.89263-0.08679l-0.66948,0.59509L63.14688,22.78255z"/>
</g>
</svg>
