<?xml version="1.0" encoding="utf-8"?>
<!-- Generator: Adobe Illustrator 22.1.0, SVG Export Plug-In . SVG Version: 6.00 Build 0)  -->
<svg version="1.1" id="Layer_1" xmlns="http://www.w3.org/2000/svg" xmlns:xlink="http://www.w3.org/1999/xlink" x="0px" y="0px"
	 viewBox="0 0 47.25 47.75" style="enable-background:new 0 0 47.25 47.75;" xml:space="preserve">

<style type="text/css">
	.st0{fill:#F6F7F8;}
	.st1{fill:#B5223D;}
</style>

<g>
	<g>
		<polygon class="st0" points="26.6418,9.40014 25.78585,8.5493 24.71215,9.10042 25.25685,8.02345 24.4009,7.1726 25.59349,7.35784
			26.13819,6.28086 26.33055,7.47232 27.52314,7.65755 26.44944,8.20868 		"/>
		<polygon class="st0" points="36.07137,32.72215 34.38363,31.73985 32.92787,33.04145 33.34054,31.13276 31.6528,30.15047 33.59559,29.95313
			34.00826,28.04445 34.7963,29.83117 36.73909,29.63383 35.28333,30.93542 		"/>
		<polygon class="st0" points="12.64966,19.92109 11.85066,18.55183 10.30152,18.8886 11.35685,17.70558 10.55785,16.33632 12.00909,16.97443
			13.06442,15.79142 12.906,17.36881 14.35723,18.00692 12.80809,18.34369 		"/>
		<path class="st1" d="M23.625,1.375c-12.42515,0-22.5,10.07485-22.5,22.5s10.07485,22.5,22.5,22.5s22.5-10.07486,22.5-22.5
			S36.05014,1.375,23.625,1.375z M23.625,43.80357c-3.94458,0-7.62429-1.14686-10.71771-3.12429
			c0.25714-0.39857,1.53514-2.36057,2.30914-3.24257c0.864-0.98743,1.74857-1.09286,2.95972-0.92315
			c1.21115,0.1723,2.96229,1.16744,4.43057-0.10799c1.46829-1.27286,6.28972-8.44201,12.07544-18.78428
			c0,0,0.06171-0.06429-0.00257-0.12342c-0.06686-0.06173-0.288-0.21858-0.288-0.21858s-0.05143-0.02058-0.10542,0.03343
			c-0.05143,0.054-4.23772,4.53086-9.648,12.46372c0,0-0.49628,0.47828-0.92828,0.18256
			c-0.432-0.29571-0.48343-0.66343-0.22116-0.98742c0.25972-0.324,6.74744-9.54258,8.72743-13.34057
			c0,0,0.07458-0.126-0.02314-0.20315c-0.10029-0.07457-0.19028,0.04373-0.19028,0.04373s-5.76001,5.75229-11.45058,13.67999
			c0,0-0.49628,0.51943-0.95143,0.17487l-0.00256-0.00257c-0.45515-0.342-0.09001-0.96171-0.09001-0.96171
			c6.06858-7.63972,10.02857-14.75486,10.02857-14.75486s0.09001-0.11829-0.01028-0.19286
			c-0.10029-0.07458-0.20315,0.03086-0.20315,0.03086c-3.10885,2.94429-10.20343,11.70513-10.44514,12.04456
			c-0.24171,0.33686-0.60685,0.38829-1.01057,0.054c-0.40372-0.33428-0.07714-0.94115-0.07714-0.94115
			c6.15085-7.37486,9.31115-12.62313,9.34971-12.68742c0.03858-0.06686,0.00515-0.11057,0.00515-0.11057
			s-0.21086-0.16972-0.288-0.21601c-0.07714-0.04628-0.12087,0.03086-0.12087,0.03086
			C18.369,20.01271,12.79157,26.60843,11.96614,28.36985c-0.82284,1.75886,0.612,3.17058,1.10828,4.28914
			c0.49373,1.11858,0.63515,2.00058-0.07714,3.09857c-0.64286,0.99258-2.19857,2.77458-2.49429,3.11401
			C6.33214,35.22014,3.69643,29.85615,3.69643,23.875c0-11.00571,8.92286-19.92857,19.92857-19.92857
			S43.55357,12.86929,43.55357,23.875S34.63071,43.80357,23.625,43.80357z"/>
	</g>
</g>
</svg>
